<?xml version="1.0" encoding="UTF-8" standalone="no"?>
<!-- Created with Inkscape (http://www.inkscape.org/) -->

<svg
   version="1.1"
   id="svg1"
   width="1024"
   height="1024"
   viewBox="0 0 1024 1024"
   xmlns="http://www.w3.org/2000/svg"
   xmlns:svg="http://www.w3.org/2000/svg">
  <defs
     id="defs1" />
  <g
     id="g1">
    <path
       style="fill:#000000;stroke-width:1.11621"
       d="M 504.02521,1017.2625 C 488.52761,1013.265 409.43802,967.22414 368.23042,938.21166 320.52671,904.62553 288.63197,878.02033 255.81956,844.44343 217.94864,805.69015 192.53263,770.83595 170.90598,727.99731 156.19314,698.85375 148.50821,679.01768 140.138,648.58009 c -10.37977,-37.74521 -15.18417,-73.51086 -17.4692,-130.0471 -1.67822,-41.52184 -1.82475,-308.76484 -0.18523,-337.79006 1.3051,-23.10463 3.867,-29.93734 14.96681,-39.91703 9.14915,-8.22588 14.88586,-10.05971 45.61915,-14.58299 125.89358,-18.52883 209.28001,-48.171704 298.07052,-105.960472 11.01102,-7.166454 22.47514,-13.5901689 25.47583,-14.2749203 8.42296,-1.9220987 15.19342,0.7063521 33.691,13.0796153 25.56824,17.102938 43.63921,27.667466 69.30082,40.514189 63.34566,31.712103 130.08948,51.107678 229.22736,66.612818 34.56066,5.4053 40.32882,7.24969 49.31098,15.76757 9.82253,9.3148 12.09173,15.24432 13.62273,35.5972 0.82885,11.01841 1.12374,87.39942 0.72901,188.82699 -0.70628,181.48288 -1.04231,190.87872 -8.3819,234.37762 -20.86246,123.64385 -86.90891,224.26173 -205.89704,313.67206 -38.6495,29.04209 -84.71981,58.54727 -134.97903,86.44572 -32.35283,17.9587 -37.01399,19.5083 -49.2146,16.3612 z m 38.61747,-93.52985 c 95.75737,-55.26888 169.54589,-115.94046 210.5957,-173.15937 40.72992,-56.77302 61.07872,-108.3173 72.0654,-182.54438 2.20326,-14.88549 2.53056,-36.02534 2.95261,-190.70479 0.27176,-99.59223 -0.0771,-174.80878 -0.81599,-175.94069 -0.80417,-1.23192 -9.72649,-3.28271 -23.67172,-5.44091 -42.27588,-6.54277 -96.10951,-18.78167 -128.63799,-29.24545 -43.4803,-13.98679 -98.28404,-38.73717 -133.2159,-60.16278 -10.80902,-6.629754 -22.21787,-13.390549 -25.35298,-15.023963 l -5.70017,-2.969851 -6.6738,3.663519 c -3.67057,2.014928 -12.93608,7.650681 -20.58999,12.523875 -69.52159,44.26393 -161.79091,76.10879 -264.86216,91.41175 -9.2077,1.36706 -18.25129,3.426 -20.09688,4.57541 l -3.35562,2.08985 0.59101,174.96927 c 0.63815,188.92818 0.38703,182.68106 9.09828,226.33535 8.75832,43.89027 21.23226,76.41783 44.09489,114.98377 30.5357,51.50926 80.7372,103.27932 144.2083,148.71414 31.52096,22.5638 106.09634,68.19315 114.36334,69.97382 6.74992,1.4539 11.32767,-0.38337 35.00367,-14.04857 z M 299.85611,736.21813 c -18.88636,-7.23694 -30.16876,-23.8415 -30.16876,-44.40001 0,-23.13527 18.33933,-42.23193 41.05872,-42.75421 l 8.42176,-0.1936 24.39173,-24.51088 24.39169,-24.51087 -27.29551,-26.53557 c -22.58808,-21.95915 -27.29553,-27.23751 -27.29553,-30.60579 0,-3.12349 2.9629,-7.19307 12.73791,-17.49563 13.82279,-14.56881 18.68977,-18.32467 23.74584,-18.32467 2.23032,0 8.71548,5.36865 20.26628,16.77718 l 16.9864,16.77717 16.63102,-15.5166 c 9.14706,-8.53414 70.02109,-69.08344 135.27562,-134.55399 l 118.64458,-119.03737 13.10184,-5.33371 c 15.81967,-6.44011 40.29363,-13.99206 64.4644,-19.89183 20.09831,-4.90575 25.24991,-4.43228 31.01817,2.85077 2.53798,3.20449 2.94584,5.19292 2.29248,11.17678 -1.11659,10.22647 -12.60596,49.50575 -19.74908,67.51714 -9.6403,24.30801 -14.54773,30.35834 -61.61146,75.96068 -23.44001,22.71217 -58.0129,56.39002 -76.82863,74.83967 -18.8157,18.44965 -42.39905,41.39113 -52.40741,50.9811 -10.00836,9.58996 -35.00583,33.89482 -55.54993,54.01078 l -37.35291,36.57449 17.33619,17.29103 c 14.21312,14.17608 17.33618,18.05431 17.33618,21.52815 0,3.41557 -2.87629,7.16005 -14.83405,19.31159 -10.97606,11.15391 -15.78069,15.07447 -18.47383,15.07447 -2.77761,0 -10.13558,-6.46324 -31.0643,-27.28688 l -27.42457,-27.28687 -25.31139,25.46718 -25.31138,25.46716 -0.0397,7.69466 c -0.0762,14.78973 -10.01561,29.82714 -24.27934,36.7321 -8.67641,4.20017 -25.05159,5.2916 -33.10312,2.20638 z M 560.49549,451.82605 c 0.21103,-0.60743 -1.97144,-3.37061 -4.84993,-6.14037 l -5.23364,-5.03593 -60.17526,61.14199 -60.17526,61.14197 4.99788,5.17993 4.99787,5.17994 60.02732,-60.18154 c 33.01505,-33.09985 60.20001,-60.67854 60.41102,-61.28599 z M 696.5239,734.22834 c -10.81295,-3.85918 -17.72884,-9.97148 -23.22662,-20.52778 -3.56952,-6.85386 -4.73122,-10.94631 -4.73122,-16.66715 v -7.58268 l -20.13335,-19.94959 c -11.07335,-10.97228 -20.86633,-19.9496 -21.76221,-19.9496 -0.89587,0 -12.51897,11.62789 -25.82911,25.83977 -27.45366,29.31362 -30.01789,31.56854 -34.57975,30.40833 -1.78107,-0.45298 -8.7124,-6.33548 -15.40297,-13.07225 -9.43827,-9.50344 -11.96124,-12.88952 -11.2571,-15.10811 0.94048,-2.96321 9.33061,-12.91353 29.13793,-34.5563 l 11.5392,-12.60849 -18.45487,-18.49593 -18.45487,-18.49593 18.19632,-18.15265 18.19632,-18.15263 15.99276,15.94315 15.99274,15.94316 5.86827,-5.73021 5.86827,-5.73022 -16.00722,-16.05933 -16.00721,-16.05931 12.04042,-11.10209 12.04043,-11.10209 19.54459,17.84702 19.54458,17.84702 9.7075,-8.92858 c 5.33912,-4.91072 15.91833,-14.66063 23.50938,-21.66649 7.59103,-7.00585 14.94761,-12.73791 16.34798,-12.73791 4.12749,0 25.50397,21.70468 25.50397,25.89553 0,2.6788 -7.7209,11.34755 -31.34673,35.19504 l -31.34675,31.64083 21.80831,21.18643 c 19.39428,18.84122 22.50158,21.30188 28.07128,22.22947 10.78888,1.79685 16.94123,5.1187 24.20986,13.07174 12.05238,13.18723 14.94033,30.16522 7.85551,46.18164 -8.8407,19.9859 -32.33063,30.38172 -52.43564,23.20619 z M 403.42737,465.70603 C 331.80978,399.41471 289.49109,357.49996 282.99765,346.42578 c -7.97686,-13.60404 -27.86791,-77.35766 -27.86791,-89.32056 0,-5.84174 4.5125,-11.59711 10.69165,-13.63642 4.11218,-1.35714 8.29458,-0.72018 28.37587,4.3216 25.82391,6.48354 53.21919,15.49059 64.84019,21.3182 5.65735,2.83702 21.98319,18.19779 67.61756,63.62053 33.08771,32.93425 60.8485,61.13911 61.69061,62.67744 1.34394,2.45505 -3.09379,7.39379 -36.29926,40.39739 -20.80671,20.68024 -38.41356,37.57539 -39.12631,37.54482 -0.71276,-0.0305 -4.98447,-3.46982 -9.49268,-7.64275 z"
       id="path1" />
  </g>
</svg>
